<mxfile host="Electron" agent="Mozilla/5.0 (Windows NT 10.0; Win64; x64) AppleWebKit/537.36 (KHTML, like Gecko) draw.io/27.0.2 Chrome/134.0.6998.205 Electron/35.3.0 Safari/537.36" version="27.0.2">
  <diagram name="Page-1" id="YAwnFz1UodfvuVzzgCZk">
    <mxGraphModel dx="3157" dy="1828" grid="1" gridSize="10" guides="1" tooltips="1" connect="1" arrows="1" fold="1" page="1" pageScale="1" pageWidth="1169" pageHeight="827" math="0" shadow="0">
      <root>
        <mxCell id="0" />
        <mxCell id="1" parent="0" />
        <mxCell id="snjM7ibTIbJSS_Fp8ERs-12" style="edgeStyle=orthogonalEdgeStyle;rounded=0;orthogonalLoop=1;jettySize=auto;html=1;exitX=1;exitY=0.5;exitDx=0;exitDy=0;entryX=0;entryY=0.5;entryDx=0;entryDy=0;" parent="1" source="snjM7ibTIbJSS_Fp8ERs-2" target="snjM7ibTIbJSS_Fp8ERs-3" edge="1">
          <mxGeometry relative="1" as="geometry" />
        </mxCell>
        <mxCell id="snjM7ibTIbJSS_Fp8ERs-13" style="edgeStyle=orthogonalEdgeStyle;rounded=0;orthogonalLoop=1;jettySize=auto;html=1;exitX=1;exitY=0.5;exitDx=0;exitDy=0;entryX=0;entryY=0.5;entryDx=0;entryDy=0;" parent="1" source="snjM7ibTIbJSS_Fp8ERs-2" target="snjM7ibTIbJSS_Fp8ERs-4" edge="1">
          <mxGeometry relative="1" as="geometry" />
        </mxCell>
        <mxCell id="snjM7ibTIbJSS_Fp8ERs-14" style="edgeStyle=orthogonalEdgeStyle;rounded=0;orthogonalLoop=1;jettySize=auto;html=1;exitX=1;exitY=0.5;exitDx=0;exitDy=0;entryX=0;entryY=0.5;entryDx=0;entryDy=0;" parent="1" source="snjM7ibTIbJSS_Fp8ERs-2" target="snjM7ibTIbJSS_Fp8ERs-8" edge="1">
          <mxGeometry relative="1" as="geometry" />
        </mxCell>
        <mxCell id="snjM7ibTIbJSS_Fp8ERs-15" style="edgeStyle=orthogonalEdgeStyle;rounded=0;orthogonalLoop=1;jettySize=auto;html=1;exitX=1;exitY=0.5;exitDx=0;exitDy=0;entryX=0;entryY=0.5;entryDx=0;entryDy=0;" parent="1" source="snjM7ibTIbJSS_Fp8ERs-2" target="snjM7ibTIbJSS_Fp8ERs-7" edge="1">
          <mxGeometry relative="1" as="geometry" />
        </mxCell>
        <mxCell id="snjM7ibTIbJSS_Fp8ERs-17" style="edgeStyle=orthogonalEdgeStyle;rounded=0;orthogonalLoop=1;jettySize=auto;html=1;exitX=1;exitY=0.5;exitDx=0;exitDy=0;entryX=0;entryY=0.5;entryDx=0;entryDy=0;" parent="1" source="snjM7ibTIbJSS_Fp8ERs-2" target="snjM7ibTIbJSS_Fp8ERs-6" edge="1">
          <mxGeometry relative="1" as="geometry" />
        </mxCell>
        <mxCell id="snjM7ibTIbJSS_Fp8ERs-18" style="edgeStyle=orthogonalEdgeStyle;rounded=0;orthogonalLoop=1;jettySize=auto;html=1;exitX=1;exitY=0.5;exitDx=0;exitDy=0;entryX=0;entryY=0.5;entryDx=0;entryDy=0;" parent="1" source="snjM7ibTIbJSS_Fp8ERs-2" target="snjM7ibTIbJSS_Fp8ERs-5" edge="1">
          <mxGeometry relative="1" as="geometry" />
        </mxCell>
        <mxCell id="snjM7ibTIbJSS_Fp8ERs-19" style="edgeStyle=orthogonalEdgeStyle;rounded=0;orthogonalLoop=1;jettySize=auto;html=1;exitX=1;exitY=0.5;exitDx=0;exitDy=0;entryX=0;entryY=0.5;entryDx=0;entryDy=0;" parent="1" source="snjM7ibTIbJSS_Fp8ERs-2" target="snjM7ibTIbJSS_Fp8ERs-9" edge="1">
          <mxGeometry relative="1" as="geometry" />
        </mxCell>
        <mxCell id="snjM7ibTIbJSS_Fp8ERs-20" style="edgeStyle=orthogonalEdgeStyle;rounded=0;orthogonalLoop=1;jettySize=auto;html=1;exitX=1;exitY=0.5;exitDx=0;exitDy=0;entryX=0;entryY=0.5;entryDx=0;entryDy=0;" parent="1" source="snjM7ibTIbJSS_Fp8ERs-2" target="snjM7ibTIbJSS_Fp8ERs-10" edge="1">
          <mxGeometry relative="1" as="geometry" />
        </mxCell>
        <mxCell id="snjM7ibTIbJSS_Fp8ERs-21" style="edgeStyle=orthogonalEdgeStyle;rounded=0;orthogonalLoop=1;jettySize=auto;html=1;exitX=1;exitY=0.5;exitDx=0;exitDy=0;entryX=0;entryY=0.5;entryDx=0;entryDy=0;" parent="1" source="snjM7ibTIbJSS_Fp8ERs-2" target="snjM7ibTIbJSS_Fp8ERs-11" edge="1">
          <mxGeometry relative="1" as="geometry" />
        </mxCell>
        <mxCell id="snjM7ibTIbJSS_Fp8ERs-2" value="Customer&lt;div&gt;&lt;span style=&quot;background-color: transparent; color: light-dark(rgb(0, 0, 0), rgb(255, 255, 255));&quot;&gt;Contacts&lt;/span&gt;&lt;/div&gt;" style="shape=parallelogram;perimeter=parallelogramPerimeter;whiteSpace=wrap;html=1;fixedSize=1;" parent="1" vertex="1">
          <mxGeometry x="40" y="880" width="120" height="80" as="geometry" />
        </mxCell>
        <mxCell id="snjM7ibTIbJSS_Fp8ERs-117" style="edgeStyle=orthogonalEdgeStyle;rounded=0;orthogonalLoop=1;jettySize=auto;html=1;exitX=1;exitY=0.5;exitDx=0;exitDy=0;entryX=0;entryY=0.25;entryDx=0;entryDy=0;" parent="1" source="snjM7ibTIbJSS_Fp8ERs-3" target="snjM7ibTIbJSS_Fp8ERs-109" edge="1">
          <mxGeometry relative="1" as="geometry" />
        </mxCell>
        <mxCell id="snjM7ibTIbJSS_Fp8ERs-3" value="Order" style="rhombus;whiteSpace=wrap;html=1;" parent="1" vertex="1">
          <mxGeometry x="240" y="1080" width="80" height="80" as="geometry" />
        </mxCell>
        <mxCell id="snjM7ibTIbJSS_Fp8ERs-105" style="edgeStyle=orthogonalEdgeStyle;rounded=0;orthogonalLoop=1;jettySize=auto;html=1;exitX=1;exitY=0.5;exitDx=0;exitDy=0;entryX=0;entryY=0.25;entryDx=0;entryDy=0;" parent="1" source="snjM7ibTIbJSS_Fp8ERs-4" target="snjM7ibTIbJSS_Fp8ERs-93" edge="1">
          <mxGeometry relative="1" as="geometry" />
        </mxCell>
        <mxCell id="snjM7ibTIbJSS_Fp8ERs-4" value="Off-Hire" style="rhombus;whiteSpace=wrap;html=1;" parent="1" vertex="1">
          <mxGeometry x="240" y="880" width="80" height="80" as="geometry" />
        </mxCell>
        <mxCell id="snjM7ibTIbJSS_Fp8ERs-56" style="edgeStyle=orthogonalEdgeStyle;rounded=0;orthogonalLoop=1;jettySize=auto;html=1;exitX=1;exitY=0.5;exitDx=0;exitDy=0;entryX=0;entryY=0.25;entryDx=0;entryDy=0;" parent="1" source="snjM7ibTIbJSS_Fp8ERs-5" target="snjM7ibTIbJSS_Fp8ERs-49" edge="1">
          <mxGeometry relative="1" as="geometry" />
        </mxCell>
        <mxCell id="snjM7ibTIbJSS_Fp8ERs-5" value="Prices&lt;br&gt;/ List" style="rhombus;whiteSpace=wrap;html=1;" parent="1" vertex="1">
          <mxGeometry x="240" y="80" width="80" height="80" as="geometry" />
        </mxCell>
        <mxCell id="snjM7ibTIbJSS_Fp8ERs-6" value="Quote" style="rhombus;whiteSpace=wrap;html=1;" parent="1" vertex="1">
          <mxGeometry x="240" y="280" width="80" height="80" as="geometry" />
        </mxCell>
        <mxCell id="snjM7ibTIbJSS_Fp8ERs-86" style="edgeStyle=orthogonalEdgeStyle;rounded=0;orthogonalLoop=1;jettySize=auto;html=1;exitX=1;exitY=0.5;exitDx=0;exitDy=0;entryX=0;entryY=0.25;entryDx=0;entryDy=0;" parent="1" source="snjM7ibTIbJSS_Fp8ERs-7" target="snjM7ibTIbJSS_Fp8ERs-81" edge="1">
          <mxGeometry relative="1" as="geometry" />
        </mxCell>
        <mxCell id="snjM7ibTIbJSS_Fp8ERs-7" value="Statement" style="rhombus;whiteSpace=wrap;html=1;" parent="1" vertex="1">
          <mxGeometry x="240" y="480" width="80" height="80" as="geometry" />
        </mxCell>
        <mxCell id="snjM7ibTIbJSS_Fp8ERs-91" style="edgeStyle=orthogonalEdgeStyle;rounded=0;orthogonalLoop=1;jettySize=auto;html=1;exitX=1;exitY=0.5;exitDx=0;exitDy=0;entryX=0;entryY=0.25;entryDx=0;entryDy=0;" parent="1" source="snjM7ibTIbJSS_Fp8ERs-8" target="snjM7ibTIbJSS_Fp8ERs-88" edge="1">
          <mxGeometry relative="1" as="geometry" />
        </mxCell>
        <mxCell id="snjM7ibTIbJSS_Fp8ERs-8" value="Refund" style="rhombus;whiteSpace=wrap;html=1;" parent="1" vertex="1">
          <mxGeometry x="240" y="680" width="80" height="80" as="geometry" />
        </mxCell>
        <mxCell id="snjM7ibTIbJSS_Fp8ERs-9" value="Breakdown" style="rhombus;whiteSpace=wrap;html=1;" parent="1" vertex="1">
          <mxGeometry x="240" y="1280" width="80" height="80" as="geometry" />
        </mxCell>
        <mxCell id="snjM7ibTIbJSS_Fp8ERs-10" value="Application" style="rhombus;whiteSpace=wrap;html=1;" parent="1" vertex="1">
          <mxGeometry x="240" y="1480" width="80" height="80" as="geometry" />
        </mxCell>
        <mxCell id="snjM7ibTIbJSS_Fp8ERs-11" value="Coring" style="rhombus;whiteSpace=wrap;html=1;" parent="1" vertex="1">
          <mxGeometry x="240" y="1680" width="80" height="80" as="geometry" />
        </mxCell>
        <mxCell id="snjM7ibTIbJSS_Fp8ERs-26" value="Components" style="swimlane;whiteSpace=wrap;html=1;" parent="1" vertex="1">
          <mxGeometry x="40" y="1960" width="840" height="490" as="geometry" />
        </mxCell>
        <mxCell id="snjM7ibTIbJSS_Fp8ERs-30" value="Date Details" style="swimlane;fontStyle=0;childLayout=stackLayout;horizontal=1;startSize=30;horizontalStack=0;resizeParent=1;resizeParentMax=0;resizeLast=0;collapsible=1;marginBottom=0;whiteSpace=wrap;html=1;" parent="snjM7ibTIbJSS_Fp8ERs-26" vertex="1">
          <mxGeometry x="240" y="40" width="160" height="60" as="geometry" />
        </mxCell>
        <mxCell id="snjM7ibTIbJSS_Fp8ERs-31" value="Current Date &amp;amp; Time" style="text;strokeColor=none;fillColor=none;align=left;verticalAlign=middle;spacingLeft=4;spacingRight=4;overflow=hidden;points=[[0,0.5],[1,0.5]];portConstraint=eastwest;rotatable=0;whiteSpace=wrap;html=1;" parent="snjM7ibTIbJSS_Fp8ERs-30" vertex="1">
          <mxGeometry y="30" width="160" height="30" as="geometry" />
        </mxCell>
        <mxCell id="snjM7ibTIbJSS_Fp8ERs-34" value="Hire Date Details" style="swimlane;fontStyle=0;childLayout=stackLayout;horizontal=1;startSize=30;horizontalStack=0;resizeParent=1;resizeParentMax=0;resizeLast=0;collapsible=1;marginBottom=0;whiteSpace=wrap;html=1;" parent="snjM7ibTIbJSS_Fp8ERs-26" vertex="1">
          <mxGeometry x="440" y="40" width="160" height="120" as="geometry" />
        </mxCell>
        <mxCell id="snjM7ibTIbJSS_Fp8ERs-35" value="Deliver Date &amp;amp; Time" style="text;strokeColor=none;fillColor=none;align=left;verticalAlign=middle;spacingLeft=4;spacingRight=4;overflow=hidden;points=[[0,0.5],[1,0.5]];portConstraint=eastwest;rotatable=0;whiteSpace=wrap;html=1;" parent="snjM7ibTIbJSS_Fp8ERs-34" vertex="1">
          <mxGeometry y="30" width="160" height="30" as="geometry" />
        </mxCell>
        <mxCell id="snjM7ibTIbJSS_Fp8ERs-36" value="Start Date &amp;amp; Time" style="text;strokeColor=none;fillColor=none;align=left;verticalAlign=middle;spacingLeft=4;spacingRight=4;overflow=hidden;points=[[0,0.5],[1,0.5]];portConstraint=eastwest;rotatable=0;whiteSpace=wrap;html=1;" parent="snjM7ibTIbJSS_Fp8ERs-34" vertex="1">
          <mxGeometry y="60" width="160" height="30" as="geometry" />
        </mxCell>
        <mxCell id="iy05ChG2pg_JirYLBQnu-11" value="Deliver or Counter Toggle (FK this type of data)" style="text;strokeColor=none;fillColor=none;align=left;verticalAlign=middle;spacingLeft=4;spacingRight=4;overflow=hidden;points=[[0,0.5],[1,0.5]];portConstraint=eastwest;rotatable=0;whiteSpace=wrap;html=1;" parent="snjM7ibTIbJSS_Fp8ERs-34" vertex="1">
          <mxGeometry y="90" width="160" height="30" as="geometry" />
        </mxCell>
        <mxCell id="snjM7ibTIbJSS_Fp8ERs-38" value="Equipment List" style="swimlane;fontStyle=0;childLayout=stackLayout;horizontal=1;startSize=30;horizontalStack=0;resizeParent=1;resizeParentMax=0;resizeLast=0;collapsible=1;marginBottom=0;whiteSpace=wrap;html=1;" parent="snjM7ibTIbJSS_Fp8ERs-26" vertex="1">
          <mxGeometry x="640" y="40" width="160" height="150" as="geometry" />
        </mxCell>
        <mxCell id="snjM7ibTIbJSS_Fp8ERs-40" value="Tool 1" style="text;strokeColor=none;fillColor=none;align=left;verticalAlign=middle;spacingLeft=4;spacingRight=4;overflow=hidden;points=[[0,0.5],[1,0.5]];portConstraint=eastwest;rotatable=0;whiteSpace=wrap;html=1;" parent="snjM7ibTIbJSS_Fp8ERs-38" vertex="1">
          <mxGeometry y="30" width="160" height="30" as="geometry" />
        </mxCell>
        <mxCell id="snjM7ibTIbJSS_Fp8ERs-42" value="Tool 2" style="swimlane;fontStyle=0;childLayout=stackLayout;horizontal=1;startSize=30;horizontalStack=0;resizeParent=1;resizeParentMax=0;resizeLast=0;collapsible=1;marginBottom=0;whiteSpace=wrap;html=1;" parent="snjM7ibTIbJSS_Fp8ERs-38" vertex="1">
          <mxGeometry y="60" width="160" height="60" as="geometry" />
        </mxCell>
        <mxCell id="snjM7ibTIbJSS_Fp8ERs-43" value="Tool 2 - Accessory 1" style="text;strokeColor=none;fillColor=none;align=left;verticalAlign=middle;spacingLeft=4;spacingRight=4;overflow=hidden;points=[[0,0.5],[1,0.5]];portConstraint=eastwest;rotatable=0;whiteSpace=wrap;html=1;" parent="snjM7ibTIbJSS_Fp8ERs-42" vertex="1">
          <mxGeometry y="30" width="160" height="30" as="geometry" />
        </mxCell>
        <mxCell id="snjM7ibTIbJSS_Fp8ERs-41" value="Tool 3" style="text;strokeColor=none;fillColor=none;align=left;verticalAlign=middle;spacingLeft=4;spacingRight=4;overflow=hidden;points=[[0,0.5],[1,0.5]];portConstraint=eastwest;rotatable=0;whiteSpace=wrap;html=1;" parent="snjM7ibTIbJSS_Fp8ERs-38" vertex="1">
          <mxGeometry y="120" width="160" height="30" as="geometry" />
        </mxCell>
        <mxCell id="snjM7ibTIbJSS_Fp8ERs-22" value="Customer Details" style="swimlane;fontStyle=0;childLayout=stackLayout;horizontal=1;startSize=30;horizontalStack=0;resizeParent=1;resizeParentMax=0;resizeLast=0;collapsible=1;marginBottom=0;whiteSpace=wrap;html=1;" parent="snjM7ibTIbJSS_Fp8ERs-26" vertex="1">
          <mxGeometry x="40" y="40" width="160" height="210" as="geometry" />
        </mxCell>
        <mxCell id="snjM7ibTIbJSS_Fp8ERs-23" value="Customer Name" style="text;strokeColor=none;fillColor=none;align=left;verticalAlign=middle;spacingLeft=4;spacingRight=4;overflow=hidden;points=[[0,0.5],[1,0.5]];portConstraint=eastwest;rotatable=0;whiteSpace=wrap;html=1;" parent="snjM7ibTIbJSS_Fp8ERs-22" vertex="1">
          <mxGeometry y="30" width="160" height="30" as="geometry" />
        </mxCell>
        <mxCell id="snjM7ibTIbJSS_Fp8ERs-24" value="Customer Surname" style="text;strokeColor=none;fillColor=none;align=left;verticalAlign=middle;spacingLeft=4;spacingRight=4;overflow=hidden;points=[[0,0.5],[1,0.5]];portConstraint=eastwest;rotatable=0;whiteSpace=wrap;html=1;" parent="snjM7ibTIbJSS_Fp8ERs-22" vertex="1">
          <mxGeometry y="60" width="160" height="30" as="geometry" />
        </mxCell>
        <mxCell id="snjM7ibTIbJSS_Fp8ERs-25" value="Company Name" style="text;strokeColor=none;fillColor=none;align=left;verticalAlign=middle;spacingLeft=4;spacingRight=4;overflow=hidden;points=[[0,0.5],[1,0.5]];portConstraint=eastwest;rotatable=0;whiteSpace=wrap;html=1;" parent="snjM7ibTIbJSS_Fp8ERs-22" vertex="1">
          <mxGeometry y="90" width="160" height="30" as="geometry" />
        </mxCell>
        <mxCell id="snjM7ibTIbJSS_Fp8ERs-28" value="Contact Number" style="text;strokeColor=none;fillColor=none;align=left;verticalAlign=middle;spacingLeft=4;spacingRight=4;overflow=hidden;points=[[0,0.5],[1,0.5]];portConstraint=eastwest;rotatable=0;whiteSpace=wrap;html=1;" parent="snjM7ibTIbJSS_Fp8ERs-22" vertex="1">
          <mxGeometry y="120" width="160" height="30" as="geometry" />
        </mxCell>
        <mxCell id="snjM7ibTIbJSS_Fp8ERs-27" value="Whatsapp Number" style="text;strokeColor=none;fillColor=none;align=left;verticalAlign=middle;spacingLeft=4;spacingRight=4;overflow=hidden;points=[[0,0.5],[1,0.5]];portConstraint=eastwest;rotatable=0;whiteSpace=wrap;html=1;" parent="snjM7ibTIbJSS_Fp8ERs-22" vertex="1">
          <mxGeometry y="150" width="160" height="30" as="geometry" />
        </mxCell>
        <mxCell id="snjM7ibTIbJSS_Fp8ERs-29" value="Email" style="text;strokeColor=none;fillColor=none;align=left;verticalAlign=middle;spacingLeft=4;spacingRight=4;overflow=hidden;points=[[0,0.5],[1,0.5]];portConstraint=eastwest;rotatable=0;whiteSpace=wrap;html=1;" parent="snjM7ibTIbJSS_Fp8ERs-22" vertex="1">
          <mxGeometry y="180" width="160" height="30" as="geometry" />
        </mxCell>
        <mxCell id="snjM7ibTIbJSS_Fp8ERs-97" value="Off-Hire Date Details" style="swimlane;fontStyle=0;childLayout=stackLayout;horizontal=1;startSize=30;horizontalStack=0;resizeParent=1;resizeParentMax=0;resizeLast=0;collapsible=1;marginBottom=0;whiteSpace=wrap;html=1;" parent="snjM7ibTIbJSS_Fp8ERs-26" vertex="1">
          <mxGeometry x="440" y="200" width="160" height="120" as="geometry" />
        </mxCell>
        <mxCell id="snjM7ibTIbJSS_Fp8ERs-98" value="Collect Date &amp;amp; Time" style="text;strokeColor=none;fillColor=none;align=left;verticalAlign=middle;spacingLeft=4;spacingRight=4;overflow=hidden;points=[[0,0.5],[1,0.5]];portConstraint=eastwest;rotatable=0;whiteSpace=wrap;html=1;" parent="snjM7ibTIbJSS_Fp8ERs-97" vertex="1">
          <mxGeometry y="30" width="160" height="30" as="geometry" />
        </mxCell>
        <mxCell id="snjM7ibTIbJSS_Fp8ERs-99" value="End Date &amp;amp; Time" style="text;strokeColor=none;fillColor=none;align=left;verticalAlign=middle;spacingLeft=4;spacingRight=4;overflow=hidden;points=[[0,0.5],[1,0.5]];portConstraint=eastwest;rotatable=0;whiteSpace=wrap;html=1;" parent="snjM7ibTIbJSS_Fp8ERs-97" vertex="1">
          <mxGeometry y="60" width="160" height="30" as="geometry" />
        </mxCell>
        <mxCell id="iy05ChG2pg_JirYLBQnu-10" value="Collect or Counter Toggle" style="text;strokeColor=none;fillColor=none;align=left;verticalAlign=middle;spacingLeft=4;spacingRight=4;overflow=hidden;points=[[0,0.5],[1,0.5]];portConstraint=eastwest;rotatable=0;whiteSpace=wrap;html=1;" parent="snjM7ibTIbJSS_Fp8ERs-97" vertex="1">
          <mxGeometry y="90" width="160" height="30" as="geometry" />
        </mxCell>
        <mxCell id="iy05ChG2pg_JirYLBQnu-7" value="Breakdown Date Details" style="swimlane;fontStyle=0;childLayout=stackLayout;horizontal=1;startSize=30;horizontalStack=0;resizeParent=1;resizeParentMax=0;resizeLast=0;collapsible=1;marginBottom=0;whiteSpace=wrap;html=1;" parent="snjM7ibTIbJSS_Fp8ERs-26" vertex="1">
          <mxGeometry x="440" y="360" width="160" height="90" as="geometry" />
        </mxCell>
        <mxCell id="iy05ChG2pg_JirYLBQnu-8" value="Date &amp;amp; Time" style="text;strokeColor=none;fillColor=none;align=left;verticalAlign=middle;spacingLeft=4;spacingRight=4;overflow=hidden;points=[[0,0.5],[1,0.5]];portConstraint=eastwest;rotatable=0;whiteSpace=wrap;html=1;" parent="iy05ChG2pg_JirYLBQnu-7" vertex="1">
          <mxGeometry y="30" width="160" height="30" as="geometry" />
        </mxCell>
        <mxCell id="iy05ChG2pg_JirYLBQnu-9" value="Swap or Repair Toggle" style="text;strokeColor=none;fillColor=none;align=left;verticalAlign=middle;spacingLeft=4;spacingRight=4;overflow=hidden;points=[[0,0.5],[1,0.5]];portConstraint=eastwest;rotatable=0;whiteSpace=wrap;html=1;" parent="iy05ChG2pg_JirYLBQnu-7" vertex="1">
          <mxGeometry y="60" width="160" height="30" as="geometry" />
        </mxCell>
        <mxCell id="iy05ChG2pg_JirYLBQnu-18" value="Application Details" style="swimlane;fontStyle=0;childLayout=stackLayout;horizontal=1;startSize=30;horizontalStack=0;resizeParent=1;resizeParentMax=0;resizeLast=0;collapsible=1;marginBottom=0;whiteSpace=wrap;html=1;" parent="snjM7ibTIbJSS_Fp8ERs-26" vertex="1">
          <mxGeometry x="40" y="280" width="160" height="60" as="geometry" />
        </mxCell>
        <mxCell id="iy05ChG2pg_JirYLBQnu-19" value="Individual / Company Toggle" style="text;strokeColor=none;fillColor=none;align=left;verticalAlign=middle;spacingLeft=4;spacingRight=4;overflow=hidden;points=[[0,0.5],[1,0.5]];portConstraint=eastwest;rotatable=0;whiteSpace=wrap;html=1;" parent="iy05ChG2pg_JirYLBQnu-18" vertex="1">
          <mxGeometry y="30" width="160" height="30" as="geometry" />
        </mxCell>
        <mxCell id="iy05ChG2pg_JirYLBQnu-31" value="Coring Details" style="swimlane;fontStyle=0;childLayout=stackLayout;horizontal=1;startSize=30;horizontalStack=0;resizeParent=1;resizeParentMax=0;resizeLast=0;collapsible=1;marginBottom=0;whiteSpace=wrap;html=1;" parent="snjM7ibTIbJSS_Fp8ERs-26" vertex="1">
          <mxGeometry x="40" y="360" width="160" height="60" as="geometry" />
        </mxCell>
        <mxCell id="iy05ChG2pg_JirYLBQnu-32" value="Various Coring Details" style="text;strokeColor=none;fillColor=none;align=left;verticalAlign=middle;spacingLeft=4;spacingRight=4;overflow=hidden;points=[[0,0.5],[1,0.5]];portConstraint=eastwest;rotatable=0;whiteSpace=wrap;html=1;" parent="iy05ChG2pg_JirYLBQnu-31" vertex="1">
          <mxGeometry y="30" width="160" height="30" as="geometry" />
        </mxCell>
        <mxCell id="snjM7ibTIbJSS_Fp8ERs-80" style="edgeStyle=orthogonalEdgeStyle;rounded=0;orthogonalLoop=1;jettySize=auto;html=1;exitX=1;exitY=0.25;exitDx=0;exitDy=0;entryX=0;entryY=0.5;entryDx=0;entryDy=0;" parent="1" source="snjM7ibTIbJSS_Fp8ERs-49" target="snjM7ibTIbJSS_Fp8ERs-79" edge="1">
          <mxGeometry relative="1" as="geometry" />
        </mxCell>
        <mxCell id="snjM7ibTIbJSS_Fp8ERs-49" value="Capture Details" style="swimlane;fontStyle=0;childLayout=stackLayout;horizontal=1;startSize=30;horizontalStack=0;resizeParent=1;resizeParentMax=0;resizeLast=0;collapsible=1;marginBottom=0;whiteSpace=wrap;html=1;" parent="1" vertex="1">
          <mxGeometry x="360" y="105" width="140" height="60" as="geometry" />
        </mxCell>
        <mxCell id="snjM7ibTIbJSS_Fp8ERs-50" value="Customer Details" style="text;strokeColor=none;fillColor=none;align=left;verticalAlign=middle;spacingLeft=4;spacingRight=4;overflow=hidden;points=[[0,0.5],[1,0.5]];portConstraint=eastwest;rotatable=0;whiteSpace=wrap;html=1;" parent="snjM7ibTIbJSS_Fp8ERs-49" vertex="1">
          <mxGeometry y="30" width="140" height="30" as="geometry" />
        </mxCell>
        <mxCell id="snjM7ibTIbJSS_Fp8ERs-58" value="TaskBoards" style="swimlane;whiteSpace=wrap;html=1;" parent="1" vertex="1">
          <mxGeometry x="920" y="1960" width="440" height="400" as="geometry" />
        </mxCell>
        <mxCell id="snjM7ibTIbJSS_Fp8ERs-59" value="Current User" style="swimlane;fontStyle=0;childLayout=stackLayout;horizontal=1;startSize=30;horizontalStack=0;resizeParent=1;resizeParentMax=0;resizeLast=0;collapsible=1;marginBottom=0;whiteSpace=wrap;html=1;" parent="snjM7ibTIbJSS_Fp8ERs-58" vertex="1">
          <mxGeometry x="40" y="40" width="160" height="120" as="geometry" />
        </mxCell>
        <mxCell id="snjM7ibTIbJSS_Fp8ERs-60" value="Price Lists" style="text;strokeColor=none;fillColor=none;align=left;verticalAlign=middle;spacingLeft=4;spacingRight=4;overflow=hidden;points=[[0,0.5],[1,0.5]];portConstraint=eastwest;rotatable=0;whiteSpace=wrap;html=1;" parent="snjM7ibTIbJSS_Fp8ERs-59" vertex="1">
          <mxGeometry y="30" width="160" height="30" as="geometry" />
        </mxCell>
        <mxCell id="snjM7ibTIbJSS_Fp8ERs-73" value="Refund" style="text;strokeColor=none;fillColor=none;align=left;verticalAlign=middle;spacingLeft=4;spacingRight=4;overflow=hidden;points=[[0,0.5],[1,0.5]];portConstraint=eastwest;rotatable=0;whiteSpace=wrap;html=1;" parent="snjM7ibTIbJSS_Fp8ERs-59" vertex="1">
          <mxGeometry y="60" width="160" height="30" as="geometry" />
        </mxCell>
        <mxCell id="snjM7ibTIbJSS_Fp8ERs-74" value="Application" style="text;strokeColor=none;fillColor=none;align=left;verticalAlign=middle;spacingLeft=4;spacingRight=4;overflow=hidden;points=[[0,0.5],[1,0.5]];portConstraint=eastwest;rotatable=0;whiteSpace=wrap;html=1;" parent="snjM7ibTIbJSS_Fp8ERs-59" vertex="1">
          <mxGeometry y="90" width="160" height="30" as="geometry" />
        </mxCell>
        <mxCell id="snjM7ibTIbJSS_Fp8ERs-61" value="Drivers Schedule" style="swimlane;fontStyle=0;childLayout=stackLayout;horizontal=1;startSize=30;horizontalStack=0;resizeParent=1;resizeParentMax=0;resizeLast=0;collapsible=1;marginBottom=0;whiteSpace=wrap;html=1;" parent="snjM7ibTIbJSS_Fp8ERs-58" vertex="1">
          <mxGeometry x="240" y="40" width="160" height="210" as="geometry" />
        </mxCell>
        <mxCell id="snjM7ibTIbJSS_Fp8ERs-62" value="Delivery" style="text;strokeColor=none;fillColor=none;align=left;verticalAlign=middle;spacingLeft=4;spacingRight=4;overflow=hidden;points=[[0,0.5],[1,0.5]];portConstraint=eastwest;rotatable=0;whiteSpace=wrap;html=1;" parent="snjM7ibTIbJSS_Fp8ERs-61" vertex="1">
          <mxGeometry y="30" width="160" height="30" as="geometry" />
        </mxCell>
        <mxCell id="snjM7ibTIbJSS_Fp8ERs-75" value="Collection" style="text;strokeColor=none;fillColor=none;align=left;verticalAlign=middle;spacingLeft=4;spacingRight=4;overflow=hidden;points=[[0,0.5],[1,0.5]];portConstraint=eastwest;rotatable=0;whiteSpace=wrap;html=1;" parent="snjM7ibTIbJSS_Fp8ERs-61" vertex="1">
          <mxGeometry y="60" width="160" height="30" as="geometry" />
        </mxCell>
        <mxCell id="snjM7ibTIbJSS_Fp8ERs-76" value="Swap" style="text;strokeColor=none;fillColor=none;align=left;verticalAlign=middle;spacingLeft=4;spacingRight=4;overflow=hidden;points=[[0,0.5],[1,0.5]];portConstraint=eastwest;rotatable=0;whiteSpace=wrap;html=1;" parent="snjM7ibTIbJSS_Fp8ERs-61" vertex="1">
          <mxGeometry y="90" width="160" height="30" as="geometry" />
        </mxCell>
        <mxCell id="snjM7ibTIbJSS_Fp8ERs-63" value="Repair" style="text;strokeColor=none;fillColor=none;align=left;verticalAlign=middle;spacingLeft=4;spacingRight=4;overflow=hidden;points=[[0,0.5],[1,0.5]];portConstraint=eastwest;rotatable=0;whiteSpace=wrap;html=1;" parent="snjM7ibTIbJSS_Fp8ERs-61" vertex="1">
          <mxGeometry y="120" width="160" height="30" as="geometry" />
        </mxCell>
        <mxCell id="snjM7ibTIbJSS_Fp8ERs-77" value="Coring" style="text;strokeColor=none;fillColor=none;align=left;verticalAlign=middle;spacingLeft=4;spacingRight=4;overflow=hidden;points=[[0,0.5],[1,0.5]];portConstraint=eastwest;rotatable=0;whiteSpace=wrap;html=1;" parent="snjM7ibTIbJSS_Fp8ERs-61" vertex="1">
          <mxGeometry y="150" width="160" height="30" as="geometry" />
        </mxCell>
        <mxCell id="snjM7ibTIbJSS_Fp8ERs-78" value="Task" style="text;strokeColor=none;fillColor=none;align=left;verticalAlign=middle;spacingLeft=4;spacingRight=4;overflow=hidden;points=[[0,0.5],[1,0.5]];portConstraint=eastwest;rotatable=0;whiteSpace=wrap;html=1;" parent="snjM7ibTIbJSS_Fp8ERs-61" vertex="1">
          <mxGeometry y="180" width="160" height="30" as="geometry" />
        </mxCell>
        <mxCell id="snjM7ibTIbJSS_Fp8ERs-69" value="Accounts" style="swimlane;fontStyle=0;childLayout=stackLayout;horizontal=1;startSize=30;horizontalStack=0;resizeParent=1;resizeParentMax=0;resizeLast=0;collapsible=1;marginBottom=0;whiteSpace=wrap;html=1;" parent="snjM7ibTIbJSS_Fp8ERs-58" vertex="1">
          <mxGeometry x="40" y="200" width="160" height="90" as="geometry" />
        </mxCell>
        <mxCell id="snjM7ibTIbJSS_Fp8ERs-70" value="Statement" style="text;strokeColor=none;fillColor=none;align=left;verticalAlign=middle;spacingLeft=4;spacingRight=4;overflow=hidden;points=[[0,0.5],[1,0.5]];portConstraint=eastwest;rotatable=0;whiteSpace=wrap;html=1;" parent="snjM7ibTIbJSS_Fp8ERs-69" vertex="1">
          <mxGeometry y="30" width="160" height="30" as="geometry" />
        </mxCell>
        <mxCell id="snjM7ibTIbJSS_Fp8ERs-71" value="Toilet &amp;amp; Huts" style="text;strokeColor=none;fillColor=none;align=left;verticalAlign=middle;spacingLeft=4;spacingRight=4;overflow=hidden;points=[[0,0.5],[1,0.5]];portConstraint=eastwest;rotatable=0;whiteSpace=wrap;html=1;" parent="snjM7ibTIbJSS_Fp8ERs-69" vertex="1">
          <mxGeometry y="60" width="160" height="30" as="geometry" />
        </mxCell>
        <mxCell id="snjM7ibTIbJSS_Fp8ERs-79" value="Current User" style="shape=parallelogram;perimeter=parallelogramPerimeter;whiteSpace=wrap;html=1;fixedSize=1;" parent="1" vertex="1">
          <mxGeometry x="560" y="90" width="120" height="60" as="geometry" />
        </mxCell>
        <mxCell id="snjM7ibTIbJSS_Fp8ERs-85" style="edgeStyle=orthogonalEdgeStyle;rounded=0;orthogonalLoop=1;jettySize=auto;html=1;exitX=1;exitY=0.25;exitDx=0;exitDy=0;" parent="1" source="snjM7ibTIbJSS_Fp8ERs-81" target="snjM7ibTIbJSS_Fp8ERs-84" edge="1">
          <mxGeometry relative="1" as="geometry" />
        </mxCell>
        <mxCell id="snjM7ibTIbJSS_Fp8ERs-81" value="Capture Details" style="swimlane;fontStyle=0;childLayout=stackLayout;horizontal=1;startSize=30;horizontalStack=0;resizeParent=1;resizeParentMax=0;resizeLast=0;collapsible=1;marginBottom=0;whiteSpace=wrap;html=1;" parent="1" vertex="1">
          <mxGeometry x="360" y="505" width="140" height="60" as="geometry" />
        </mxCell>
        <mxCell id="snjM7ibTIbJSS_Fp8ERs-82" value="Customer Details" style="text;strokeColor=none;fillColor=none;align=left;verticalAlign=middle;spacingLeft=4;spacingRight=4;overflow=hidden;points=[[0,0.5],[1,0.5]];portConstraint=eastwest;rotatable=0;whiteSpace=wrap;html=1;" parent="snjM7ibTIbJSS_Fp8ERs-81" vertex="1">
          <mxGeometry y="30" width="140" height="30" as="geometry" />
        </mxCell>
        <mxCell id="snjM7ibTIbJSS_Fp8ERs-84" value="Accounts" style="shape=parallelogram;perimeter=parallelogramPerimeter;whiteSpace=wrap;html=1;fixedSize=1;" parent="1" vertex="1">
          <mxGeometry x="560" y="490" width="120" height="60" as="geometry" />
        </mxCell>
        <mxCell id="snjM7ibTIbJSS_Fp8ERs-87" style="edgeStyle=orthogonalEdgeStyle;rounded=0;orthogonalLoop=1;jettySize=auto;html=1;exitX=1;exitY=0.25;exitDx=0;exitDy=0;entryX=0;entryY=0.5;entryDx=0;entryDy=0;" parent="1" source="snjM7ibTIbJSS_Fp8ERs-88" target="snjM7ibTIbJSS_Fp8ERs-90" edge="1">
          <mxGeometry relative="1" as="geometry" />
        </mxCell>
        <mxCell id="snjM7ibTIbJSS_Fp8ERs-88" value="Capture Details" style="swimlane;fontStyle=0;childLayout=stackLayout;horizontal=1;startSize=30;horizontalStack=0;resizeParent=1;resizeParentMax=0;resizeLast=0;collapsible=1;marginBottom=0;whiteSpace=wrap;html=1;" parent="1" vertex="1">
          <mxGeometry x="360" y="705" width="140" height="60" as="geometry" />
        </mxCell>
        <mxCell id="snjM7ibTIbJSS_Fp8ERs-89" value="Customer Details" style="text;strokeColor=none;fillColor=none;align=left;verticalAlign=middle;spacingLeft=4;spacingRight=4;overflow=hidden;points=[[0,0.5],[1,0.5]];portConstraint=eastwest;rotatable=0;whiteSpace=wrap;html=1;" parent="snjM7ibTIbJSS_Fp8ERs-88" vertex="1">
          <mxGeometry y="30" width="140" height="30" as="geometry" />
        </mxCell>
        <mxCell id="snjM7ibTIbJSS_Fp8ERs-90" value="Current User" style="shape=parallelogram;perimeter=parallelogramPerimeter;whiteSpace=wrap;html=1;fixedSize=1;" parent="1" vertex="1">
          <mxGeometry x="560" y="690" width="120" height="60" as="geometry" />
        </mxCell>
        <mxCell id="snjM7ibTIbJSS_Fp8ERs-104" style="edgeStyle=orthogonalEdgeStyle;rounded=0;orthogonalLoop=1;jettySize=auto;html=1;exitX=1;exitY=0.25;exitDx=0;exitDy=0;entryX=0;entryY=0.5;entryDx=0;entryDy=0;" parent="1" source="snjM7ibTIbJSS_Fp8ERs-93" target="snjM7ibTIbJSS_Fp8ERs-95" edge="1">
          <mxGeometry relative="1" as="geometry" />
        </mxCell>
        <mxCell id="snjM7ibTIbJSS_Fp8ERs-93" value="Capture Details" style="swimlane;fontStyle=0;childLayout=stackLayout;horizontal=1;startSize=30;horizontalStack=0;resizeParent=1;resizeParentMax=0;resizeLast=0;collapsible=1;marginBottom=0;whiteSpace=wrap;html=1;" parent="1" vertex="1">
          <mxGeometry x="360" y="890" width="140" height="120" as="geometry" />
        </mxCell>
        <mxCell id="snjM7ibTIbJSS_Fp8ERs-94" value="Customer Details" style="text;strokeColor=none;fillColor=none;align=left;verticalAlign=middle;spacingLeft=4;spacingRight=4;overflow=hidden;points=[[0,0.5],[1,0.5]];portConstraint=eastwest;rotatable=0;whiteSpace=wrap;html=1;" parent="snjM7ibTIbJSS_Fp8ERs-93" vertex="1">
          <mxGeometry y="30" width="140" height="30" as="geometry" />
        </mxCell>
        <mxCell id="snjM7ibTIbJSS_Fp8ERs-101" value="Equipment List" style="text;strokeColor=none;fillColor=none;align=left;verticalAlign=middle;spacingLeft=4;spacingRight=4;overflow=hidden;points=[[0,0.5],[1,0.5]];portConstraint=eastwest;rotatable=0;whiteSpace=wrap;html=1;" parent="snjM7ibTIbJSS_Fp8ERs-93" vertex="1">
          <mxGeometry y="60" width="140" height="30" as="geometry" />
        </mxCell>
        <mxCell id="snjM7ibTIbJSS_Fp8ERs-100" value="&lt;span style=&quot;text-align: center;&quot;&gt;Off-Hire Date Details&lt;/span&gt;" style="text;strokeColor=none;fillColor=none;align=left;verticalAlign=middle;spacingLeft=4;spacingRight=4;overflow=hidden;points=[[0,0.5],[1,0.5]];portConstraint=eastwest;rotatable=0;whiteSpace=wrap;html=1;" parent="snjM7ibTIbJSS_Fp8ERs-93" vertex="1">
          <mxGeometry y="90" width="140" height="30" as="geometry" />
        </mxCell>
        <mxCell id="snjM7ibTIbJSS_Fp8ERs-95" value="Drivers Scedule" style="shape=parallelogram;perimeter=parallelogramPerimeter;whiteSpace=wrap;html=1;fixedSize=1;" parent="1" vertex="1">
          <mxGeometry x="640" y="890" width="120" height="60" as="geometry" />
        </mxCell>
        <mxCell id="snjM7ibTIbJSS_Fp8ERs-107" value="Collect" style="shape=callout;whiteSpace=wrap;html=1;perimeter=calloutPerimeter;" parent="1" vertex="1">
          <mxGeometry x="540" y="870" width="70" height="50" as="geometry" />
        </mxCell>
        <mxCell id="snjM7ibTIbJSS_Fp8ERs-108" style="edgeStyle=orthogonalEdgeStyle;rounded=0;orthogonalLoop=1;jettySize=auto;html=1;exitX=1;exitY=0.25;exitDx=0;exitDy=0;entryX=0;entryY=0.5;entryDx=0;entryDy=0;" parent="1" source="snjM7ibTIbJSS_Fp8ERs-109" target="snjM7ibTIbJSS_Fp8ERs-113" edge="1">
          <mxGeometry relative="1" as="geometry" />
        </mxCell>
        <mxCell id="snjM7ibTIbJSS_Fp8ERs-109" value="Capture Details" style="swimlane;fontStyle=0;childLayout=stackLayout;horizontal=1;startSize=30;horizontalStack=0;resizeParent=1;resizeParentMax=0;resizeLast=0;collapsible=1;marginBottom=0;whiteSpace=wrap;html=1;" parent="1" vertex="1">
          <mxGeometry x="360" y="1090" width="140" height="120" as="geometry" />
        </mxCell>
        <mxCell id="snjM7ibTIbJSS_Fp8ERs-110" value="Customer Details" style="text;strokeColor=none;fillColor=none;align=left;verticalAlign=middle;spacingLeft=4;spacingRight=4;overflow=hidden;points=[[0,0.5],[1,0.5]];portConstraint=eastwest;rotatable=0;whiteSpace=wrap;html=1;" parent="snjM7ibTIbJSS_Fp8ERs-109" vertex="1">
          <mxGeometry y="30" width="140" height="30" as="geometry" />
        </mxCell>
        <mxCell id="snjM7ibTIbJSS_Fp8ERs-111" value="Equipment List" style="text;strokeColor=none;fillColor=none;align=left;verticalAlign=middle;spacingLeft=4;spacingRight=4;overflow=hidden;points=[[0,0.5],[1,0.5]];portConstraint=eastwest;rotatable=0;whiteSpace=wrap;html=1;" parent="snjM7ibTIbJSS_Fp8ERs-109" vertex="1">
          <mxGeometry y="60" width="140" height="30" as="geometry" />
        </mxCell>
        <mxCell id="snjM7ibTIbJSS_Fp8ERs-112" value="&lt;span style=&quot;text-align: center;&quot;&gt;Hire Date Details&lt;/span&gt;" style="text;strokeColor=none;fillColor=none;align=left;verticalAlign=middle;spacingLeft=4;spacingRight=4;overflow=hidden;points=[[0,0.5],[1,0.5]];portConstraint=eastwest;rotatable=0;whiteSpace=wrap;html=1;" parent="snjM7ibTIbJSS_Fp8ERs-109" vertex="1">
          <mxGeometry y="90" width="140" height="30" as="geometry" />
        </mxCell>
        <mxCell id="snjM7ibTIbJSS_Fp8ERs-113" value="Drivers Scedule" style="shape=parallelogram;perimeter=parallelogramPerimeter;whiteSpace=wrap;html=1;fixedSize=1;" parent="1" vertex="1">
          <mxGeometry x="640" y="1090" width="120" height="60" as="geometry" />
        </mxCell>
        <mxCell id="snjM7ibTIbJSS_Fp8ERs-114" value="Deliver" style="shape=callout;whiteSpace=wrap;html=1;perimeter=calloutPerimeter;" parent="1" vertex="1">
          <mxGeometry x="540" y="1070" width="70" height="50" as="geometry" />
        </mxCell>
        <mxCell id="iy05ChG2pg_JirYLBQnu-3" value="Capture Details" style="swimlane;fontStyle=0;childLayout=stackLayout;horizontal=1;startSize=30;horizontalStack=0;resizeParent=1;resizeParentMax=0;resizeLast=0;collapsible=1;marginBottom=0;whiteSpace=wrap;html=1;" parent="1" vertex="1">
          <mxGeometry x="360" y="1290" width="140" height="120" as="geometry" />
        </mxCell>
        <mxCell id="iy05ChG2pg_JirYLBQnu-4" value="Customer Details" style="text;strokeColor=none;fillColor=none;align=left;verticalAlign=middle;spacingLeft=4;spacingRight=4;overflow=hidden;points=[[0,0.5],[1,0.5]];portConstraint=eastwest;rotatable=0;whiteSpace=wrap;html=1;" parent="iy05ChG2pg_JirYLBQnu-3" vertex="1">
          <mxGeometry y="30" width="140" height="30" as="geometry" />
        </mxCell>
        <mxCell id="iy05ChG2pg_JirYLBQnu-5" value="Equipment List" style="text;strokeColor=none;fillColor=none;align=left;verticalAlign=middle;spacingLeft=4;spacingRight=4;overflow=hidden;points=[[0,0.5],[1,0.5]];portConstraint=eastwest;rotatable=0;whiteSpace=wrap;html=1;" parent="iy05ChG2pg_JirYLBQnu-3" vertex="1">
          <mxGeometry y="60" width="140" height="30" as="geometry" />
        </mxCell>
        <mxCell id="iy05ChG2pg_JirYLBQnu-6" value="&lt;span style=&quot;text-align: center;&quot;&gt;Breakdown Date Details&lt;/span&gt;" style="text;strokeColor=none;fillColor=none;align=left;verticalAlign=middle;spacingLeft=4;spacingRight=4;overflow=hidden;points=[[0,0.5],[1,0.5]];portConstraint=eastwest;rotatable=0;whiteSpace=wrap;html=1;" parent="iy05ChG2pg_JirYLBQnu-3" vertex="1">
          <mxGeometry y="90" width="140" height="30" as="geometry" />
        </mxCell>
        <mxCell id="iy05ChG2pg_JirYLBQnu-13" value="Need to work on addresses for hires" style="text;html=1;align=center;verticalAlign=middle;whiteSpace=wrap;rounded=0;" parent="1" vertex="1">
          <mxGeometry x="440" y="1890" width="200" height="30" as="geometry" />
        </mxCell>
        <mxCell id="iy05ChG2pg_JirYLBQnu-14" style="edgeStyle=orthogonalEdgeStyle;rounded=0;orthogonalLoop=1;jettySize=auto;html=1;entryX=0;entryY=0.5;entryDx=0;entryDy=0;exitX=1;exitY=0.25;exitDx=0;exitDy=0;" parent="1" source="iy05ChG2pg_JirYLBQnu-3" target="iy05ChG2pg_JirYLBQnu-15" edge="1">
          <mxGeometry relative="1" as="geometry">
            <mxPoint x="520" y="1340" as="sourcePoint" />
          </mxGeometry>
        </mxCell>
        <mxCell id="iy05ChG2pg_JirYLBQnu-15" value="Drivers Scedule" style="shape=parallelogram;perimeter=parallelogramPerimeter;whiteSpace=wrap;html=1;fixedSize=1;" parent="1" vertex="1">
          <mxGeometry x="640" y="1290" width="120" height="60" as="geometry" />
        </mxCell>
        <mxCell id="iy05ChG2pg_JirYLBQnu-16" value="Swap /&lt;br&gt;Repair" style="shape=callout;whiteSpace=wrap;html=1;perimeter=calloutPerimeter;" parent="1" vertex="1">
          <mxGeometry x="540" y="1250" width="70" height="70" as="geometry" />
        </mxCell>
        <mxCell id="iy05ChG2pg_JirYLBQnu-17" style="edgeStyle=orthogonalEdgeStyle;rounded=0;orthogonalLoop=1;jettySize=auto;html=1;exitX=1;exitY=0.5;exitDx=0;exitDy=0;entryX=-0.005;entryY=-0.011;entryDx=0;entryDy=0;entryPerimeter=0;" parent="1" source="snjM7ibTIbJSS_Fp8ERs-9" target="iy05ChG2pg_JirYLBQnu-4" edge="1">
          <mxGeometry relative="1" as="geometry" />
        </mxCell>
        <mxCell id="iy05ChG2pg_JirYLBQnu-20" value="Application Details" style="swimlane;fontStyle=0;childLayout=stackLayout;horizontal=1;startSize=30;horizontalStack=0;resizeParent=1;resizeParentMax=0;resizeLast=0;collapsible=1;marginBottom=0;whiteSpace=wrap;html=1;" parent="1" vertex="1">
          <mxGeometry x="360" y="1490" width="140" height="90" as="geometry" />
        </mxCell>
        <mxCell id="iy05ChG2pg_JirYLBQnu-21" value="Customer Details" style="text;strokeColor=none;fillColor=none;align=left;verticalAlign=middle;spacingLeft=4;spacingRight=4;overflow=hidden;points=[[0,0.5],[1,0.5]];portConstraint=eastwest;rotatable=0;whiteSpace=wrap;html=1;" parent="iy05ChG2pg_JirYLBQnu-20" vertex="1">
          <mxGeometry y="30" width="140" height="30" as="geometry" />
        </mxCell>
        <mxCell id="iy05ChG2pg_JirYLBQnu-30" value="&lt;span style=&quot;text-align: center;&quot;&gt;Application Details&lt;/span&gt;" style="text;strokeColor=none;fillColor=none;align=left;verticalAlign=middle;spacingLeft=4;spacingRight=4;overflow=hidden;points=[[0,0.5],[1,0.5]];portConstraint=eastwest;rotatable=0;whiteSpace=wrap;html=1;" parent="iy05ChG2pg_JirYLBQnu-20" vertex="1">
          <mxGeometry y="60" width="140" height="30" as="geometry" />
        </mxCell>
        <mxCell id="iy05ChG2pg_JirYLBQnu-25" value="Current User" style="shape=parallelogram;perimeter=parallelogramPerimeter;whiteSpace=wrap;html=1;fixedSize=1;" parent="1" vertex="1">
          <mxGeometry x="640" y="1490" width="120" height="60" as="geometry" />
        </mxCell>
        <mxCell id="iy05ChG2pg_JirYLBQnu-26" style="edgeStyle=orthogonalEdgeStyle;rounded=0;orthogonalLoop=1;jettySize=auto;html=1;exitX=1;exitY=0.5;exitDx=0;exitDy=0;entryX=-0.003;entryY=0.031;entryDx=0;entryDy=0;entryPerimeter=0;" parent="1" source="snjM7ibTIbJSS_Fp8ERs-10" target="iy05ChG2pg_JirYLBQnu-21" edge="1">
          <mxGeometry relative="1" as="geometry" />
        </mxCell>
        <mxCell id="iy05ChG2pg_JirYLBQnu-28" value="" style="endArrow=classic;html=1;rounded=0;" parent="1" target="iy05ChG2pg_JirYLBQnu-25" edge="1">
          <mxGeometry width="50" height="50" relative="1" as="geometry">
            <mxPoint x="500" y="1520" as="sourcePoint" />
            <mxPoint x="550" y="1470" as="targetPoint" />
          </mxGeometry>
        </mxCell>
        <mxCell id="iy05ChG2pg_JirYLBQnu-29" value="Customer /&amp;nbsp;&lt;br&gt;Individual" style="shape=callout;whiteSpace=wrap;html=1;perimeter=calloutPerimeter;" parent="1" vertex="1">
          <mxGeometry x="540" y="1450" width="70" height="70" as="geometry" />
        </mxCell>
      </root>
    </mxGraphModel>
  </diagram>
</mxfile>
